<svg width="56" height="56" viewBox="0 0 56 56" fill="none" xmlns="http://www.w3.org/2000/svg">
<path d="M36.895 12.814C34.1309 22.9876 36.15 28.5992 44.4334 35.5064C44.8617 35.8635 44.4735 36.6275 43.9328 36.4913C32.1176 33.5142 27.205 37.2614 20.5308 44.6234C20.1593 45.0331 19.4422 44.6147 19.6009 44.0848C22.5765 34.1465 20.3129 27.1216 12.9026 20.685C12.4572 20.2981 12.9925 19.3028 13.5626 19.4545C21.2401 21.4974 28.9313 20.2251 35.8243 12.2547C36.1984 11.822 37.0449 12.262 36.895 12.814Z" fill="#A782EF"/>
<path d="M33.0775 20.637C31.5425 26.0126 32.5655 28.8685 36.9735 32.4753C37.1461 32.6166 36.9898 32.9161 36.7742 32.8591C30.5668 31.2185 28.1084 33.1878 24.6285 37.0549C24.4805 37.2194 24.1984 37.0524 24.2648 36.8413C25.9114 31.5995 24.6998 27.9682 20.6825 24.6229C20.5011 24.4719 20.7046 24.0952 20.931 24.162C24.9785 25.3564 29.049 24.7712 32.6663 20.4224C32.8126 20.2465 33.1403 20.417 33.0775 20.637Z" fill="white"/>
</svg>
